<?xml version="1.0" encoding="UTF-8"?>
<svg xmlns="http://www.w3.org/2000/svg" xmlns:xlink="http://www.w3.org/1999/xlink" viewBox="0 0 48 48" width="32px" height="32px">
<g id="surface120178853">
<path style=" stroke:none;fill-rule:nonzero;fill:rgb(1.176471%,91.37255%,95.686275%);fill-opacity:1;" d="M 23.332031 4.011719 C 13.238281 4.339844 4.746094 12.503906 4.050781 22.574219 C 3.3125 33.234375 10.933594 42.238281 21.011719 43.753906 L 21.011719 29.300781 L 17.785156 29.300781 C 16.332031 29.300781 15.15625 28.125 15.15625 26.671875 C 15.15625 25.21875 16.332031 24.042969 17.785156 24.042969 L 21.011719 24.042969 L 21.011719 20.546875 C 21.011719 14.753906 23.832031 12.210938 28.644531 12.210938 C 29.359375 12.210938 29.96875 12.226562 30.488281 12.253906 C 31.761719 12.316406 32.746094 13.375 32.746094 14.648438 C 32.746094 15.976562 31.671875 17.050781 30.347656 17.050781 L 29.460938 17.050781 C 27.417969 17.050781 26.703125 18.988281 26.703125 21.171875 L 26.703125 24.046875 L 30.445312 24.046875 C 31.625 24.046875 32.53125 25.101562 32.351562 26.269531 L 32.132812 27.671875 C 31.988281 28.609375 31.179688 29.304688 30.226562 29.304688 L 26.703125 29.304688 L 26.703125 43.796875 C 36.46875 42.472656 44 34.125 44 24 C 44 12.730469 34.683594 3.640625 23.332031 4.011719 Z M 23.332031 4.011719 "/>
</g>
</svg>
